HIERARCHY
ROOT Pelvis
{
	OFFSET 0.000000 0.000000 0.000000
	CHANNELS 6 Xposition Yposition Zposition Xrotation Yrotation Zrotation
	JOINT LeftUpLeg_virtual
	{
		OFFSET 0.000000 0.000000 0.000000
		CHANNELS 3 Xrotation Yrotation Zrotation
		JOINT LeftUpLeg
		{
			OFFSET 18.735201 -5.666702 -4.541200
			CHANNELS 3 Xrotation Yrotation Zrotation
			JOINT LeftLeg
			{
				OFFSET -0.021200 -31.938179 0.493100
				CHANNELS 3 Xrotation Yrotation Zrotation
				JOINT LeftFoot
				{
					OFFSET 0.021200 -31.938179 -4.336299
					CHANNELS 3 Xrotation Yrotation Zrotation
					JOINT LeftToeBase
					{
						OFFSET 0.943001 -26.722000 15.023500
						CHANNELS 3 Xrotation Yrotation Zrotation
						End Site
						{
							OFFSET 0 0 0
						}
					}
				}
			}
		}
	}
	JOINT RightUpLeg_virtual
	{
		OFFSET 0.000000 0.000000 0.000000
		CHANNELS 3 Xrotation Yrotation Zrotation
		JOINT RightUpLeg
		{
			OFFSET -18.735201 -5.666702 -4.541200
			CHANNELS 3 Xrotation Yrotation Zrotation
			JOINT RightLeg
			{
				OFFSET 0.018946 -31.938133 0.493100
				CHANNELS 3 Xrotation Yrotation Zrotation
				JOINT RightFoot
				{
					OFFSET -0.018946 -31.938126 -4.336299
					CHANNELS 3 Xrotation Yrotation Zrotation
					JOINT RightToeBase
					{
						OFFSET -0.943001 -26.722004 15.023500
						CHANNELS 3 Xrotation Yrotation Zrotation
						End Site
						{
							OFFSET 0 0 0
						}
					}
				}
			}
		}
	}
	JOINT Hips_virtual
	{
		OFFSET 0.000000 0.000000 0.000000
		CHANNELS 3 Xrotation Yrotation Zrotation
		JOINT Hips
		{
			OFFSET -0.000000 -0.000000 -0.000000
			CHANNELS 3 Xrotation Yrotation Zrotation
			JOINT Spine
			{
				OFFSET 0.000000 10.199997 -0.299500
				CHANNELS 3 Xrotation Yrotation Zrotation
				JOINT Spine1
				{
					OFFSET 0.000000 11.900002 -1.516600
					CHANNELS 3 Xrotation Yrotation Zrotation
					JOINT Spine2
					{
						OFFSET 0.000000 13.600006 -2.842500
						CHANNELS 3 Xrotation Yrotation Zrotation
						JOINT Neck_virtual
						{
							OFFSET 0.000000 0.000000 0.000000
							CHANNELS 3 Xrotation Yrotation Zrotation
							JOINT Neck
							{
								OFFSET 0.000000 9.624100 -2.890100
								CHANNELS 3 Xrotation Yrotation Zrotation
								JOINT Head
								{
									OFFSET 0.000000 14.068802 -1.351900
									CHANNELS 3 Xrotation Yrotation Zrotation
									End Site
									{
										OFFSET 0 0 0
									}
								}
							}
						}
						JOINT LeftShoulder_virtual
						{
							OFFSET 0.000000 0.000000 0.000000
							CHANNELS 3 Xrotation Yrotation Zrotation
							JOINT LeftShoulder
							{
								OFFSET 15.263000 10.923401 -0.547700
								CHANNELS 3 Xrotation Yrotation Zrotation
								JOINT LeftArm
								{
									OFFSET 25.438599 -2.830597 -13.032500
									CHANNELS 3 Xrotation Yrotation Zrotation
									JOINT LeftForeArm
									{
										OFFSET 29.960503 0.000000 0.000000
										CHANNELS 3 Xrotation Yrotation Zrotation
										JOINT LeftHand
										{
											OFFSET 27.849251 0.000000 0.000000
											CHANNELS 3 Xrotation Yrotation Zrotation
											End Site
											{
												OFFSET 0 0 0
											}
										}
									}
								}
							}
						}
						JOINT RightShoulder_virtual
						{
							OFFSET 0.000000 0.000000 0.000000
							CHANNELS 3 Xrotation Yrotation Zrotation
							JOINT RightShoulder
							{
								OFFSET -15.263000 10.923401 -0.547700
								CHANNELS 3 Xrotation Yrotation Zrotation
								JOINT RightArm
								{
									OFFSET -25.438599 -2.830597 -13.032500
									CHANNELS 3 Xrotation Yrotation Zrotation
									JOINT RightForeArm
									{
										OFFSET -29.960503 0.000000 0.000000
										CHANNELS 3 Xrotation Yrotation Zrotation
										JOINT RightHand
										{
											OFFSET -27.849251 0.000000 0.000000
											CHANNELS 3 Xrotation Yrotation Zrotation
											End Site
											{
												OFFSET 0 0 0
											}
										}
									}
								}
							}
						}
					}
				}
			}
		}
	}
}
MOTION
Frames: 6
Frame Time: 0.03333333
-2.930625 14.710018 6.718815 0.000000 0.000000 0.000000 -88.740427 -6.004171 -0.968563 -21.391101 24.346566 -12.042704 33.754843 -1.036668 -9.456909 3.009945 9.362141 4.168152 0.000000 0.000000 0.000000 -88.637025 -4.008977 -0.062699 -8.421767 -7.907854 -0.390473 3.013250 -5.560991 3.367766 13.725255 2.559756 25.182516 0.000000 0.000000 0.000000 -88.762495 -5.339777 -0.021065 -0.867376 -3.206127 -2.548706 3.669304 2.279207 -3.875163 -2.092562 0.654082 -0.195853 0.000000 0.000000 0.000000 -2.818674 0.415744 -0.101444 1.570324 -0.771721 0.518346 0.000000 0.000000 0.000000 -3.481456 0.354338 0.118261 1.595519 -15.969390 -1.264584 23.015740 5.468416 -72.555447 179.282261 -45.393840 179.201897 0.000000 0.000000 0.000000 -2.666044 0.578909 -0.318966 0.593257 8.530835 0.951408 16.377100 4.079632 62.701635 -179.667074 48.211228 -179.324076 0.000000 0.000000 0.000000 
-2.930533 14.709881 6.718422 0.000000 0.000000 0.000000 -88.738692 -6.002758 -0.969326 -21.396247 24.348327 -12.037575 33.757804 -1.038014 -9.455976 3.018807 9.361420 4.164780 0.000000 0.000000 0.000000 -88.636103 -4.007952 -0.063775 -8.427456 -7.907809 -0.392307 3.023121 -5.562159 3.369791 13.731394 2.557767 25.182843 0.000000 0.000000 0.000000 -88.762475 -5.339792 -0.021828 -0.870310 -3.206006 -2.547163 3.663980 2.280118 -3.875057 -2.092127 0.655009 -0.195992 0.000000 0.000000 0.000000 -2.818891 0.415590 -0.101272 1.570206 -0.771141 0.517282 0.000000 0.000000 0.000000 -3.482120 0.354873 0.118431 1.595275 -15.971065 -1.264854 23.020309 5.465234 -72.559565 179.282138 -45.403443 179.201720 0.000000 0.000000 0.000000 -2.665792 0.579033 -0.318859 0.593357 8.527032 0.952789 16.372218 4.081273 62.715186 -179.669615 48.213216 -179.325223 0.000000 0.000000 0.000000 
-2.929556 14.710426 6.717167 0.000000 0.000000 0.000000 -88.732825 -6.005687 -0.977784 -21.402657 24.350692 -12.031268 33.759948 -1.041210 -9.454087 3.031164 9.359292 4.156797 0.000000 0.000000 0.000000 -88.630679 -4.010364 -0.071864 -8.430660 -7.906839 -0.390826 3.024318 -5.563799 3.368577 13.738778 2.554898 25.179627 0.000000 0.000000 0.000000 -88.758336 -5.342656 -0.028645 -0.872869 -3.206616 -2.546047 3.659279 2.280297 -3.872967 -2.090803 0.655881 -0.196800 0.000000 0.000000 0.000000 -2.818275 0.415950 -0.101553 1.569612 -0.770680 0.516442 0.000000 0.000000 0.000000 -3.482071 0.355378 0.118164 1.596243 -15.968735 -1.252943 23.022075 5.454571 -72.566901 179.283887 -45.417022 179.203018 0.000000 0.000000 0.000000 -2.665108 0.579191 -0.319718 0.592897 8.515905 0.952876 16.362452 4.076568 62.734523 -179.670080 48.214176 -179.329117 0.000000 0.000000 0.000000 
-2.927426 14.710922 6.715286 0.000000 0.000000 0.000000 -88.726288 -6.010988 -0.991787 -21.407862 24.353968 -12.025301 33.760474 -1.044926 -9.451253 3.047788 9.357456 4.147033 0.000000 0.000000 0.000000 -88.623139 -4.015895 -0.085871 -8.431930 -7.906531 -0.386854 3.019244 -5.565113 3.365834 13.748962 2.553173 25.174718 0.000000 0.000000 0.000000 -88.752598 -5.346961 -0.039860 -0.874025 -3.207595 -2.546612 3.655549 2.279327 -3.869282 -2.088532 0.656704 -0.198191 0.000000 0.000000 0.000000 -2.816468 0.416873 -0.102360 1.568617 -0.770473 0.515716 0.000000 0.000000 0.000000 -3.480967 0.355700 0.117470 1.597771 -15.963812 -1.235129 23.025314 5.435289 -72.573547 179.286155 -45.430604 179.205203 0.000000 0.000000 0.000000 -2.663661 0.579589 -0.321386 0.592570 8.501198 0.952137 16.349282 4.068529 62.760279 -179.668754 48.214968 -179.335441 0.000000 0.000000 0.000000 
-2.925097 14.711102 6.713593 0.000000 0.000000 0.000000 -88.721459 -6.016574 -1.008387 -21.412211 24.358241 -12.020910 33.760969 -1.047312 -9.447159 3.068405 9.358624 4.140563 0.000000 0.000000 0.000000 -88.616992 -4.021498 -0.101881 -8.433152 -7.907214 -0.381297 3.014094 -5.565152 3.363624 13.765234 2.554017 25.168788 0.000000 0.000000 0.000000 -88.748152 -5.350534 -0.052936 -0.875242 -3.206729 -2.547435 3.652104 2.276773 -3.864495 -2.085617 0.657335 -0.199924 0.000000 0.000000 0.000000 -2.813363 0.417780 -0.103582 1.567235 -0.770469 0.515001 0.000000 0.000000 0.000000 -3.479052 0.355858 0.116058 1.598750 -15.954448 -1.220485 23.033734 5.410300 -72.572993 179.287152 -45.440453 179.207648 0.000000 0.000000 0.000000 -2.661245 0.580152 -0.323346 0.593123 8.488936 0.952506 16.333632 4.059985 62.789745 -179.666582 48.216522 -179.343815 0.000000 0.000000 0.000000 
-2.922616 14.709766 6.714153 0.000000 0.000000 0.000000 -88.720776 -6.019409 -1.023549 -21.416051 24.362264 -12.019886 33.762083 -1.046911 -9.441705 3.089871 9.364409 4.140915 0.000000 0.000000 0.000000 -88.614772 -4.023543 -0.115070 -8.436380 -7.908096 -0.374595 3.011966 -5.563855 3.362491 13.783408 2.555710 25.162007 0.000000 0.000000 0.000000 -88.747790 -5.350757 -0.064307 -0.875185 -3.203726 -2.548315 3.648100 2.272337 -3.858969 -2.082509 0.657604 -0.201796 0.000000 0.000000 0.000000 -2.809353 0.418308 -0.104975 1.565581 -0.770608 0.514299 0.000000 0.000000 0.000000 -3.476837 0.355687 0.114100 1.597979 -15.939034 -1.217349 23.042775 5.388450 -72.558233 179.285758 -45.444537 179.210107 0.000000 0.000000 0.000000 -2.658521 0.580786 -0.325152 0.595180 8.484990 0.954813 16.316402 4.050313 62.820030 -179.664069 48.218335 -179.353418 0.000000 0.000000 0.000000 
